<svg width="64" height="72" viewBox="0 0 64 72" fill="none" xmlns="http://www.w3.org/2000/svg">
<g id="bx:heart">
<path id="Vector" d="M32 13.785C29.0944 10.7793 25.2913 9.11113 21.344 9.11099C19.2548 9.11344 17.1866 9.58067 15.2585 10.4858C13.3304 11.3909 11.5805 12.7161 10.1094 14.385C3.8347 21.474 3.83736 32.562 10.1147 39.621L29.6667 61.617C30.12 62.514 30.9947 63.093 32 63.093C32.4128 63.0885 32.8189 62.9751 33.1857 62.762C33.5525 62.5489 33.8698 62.242 34.112 61.866L53.8854 39.621C60.1627 32.559 60.1627 21.474 53.88 14.373C52.4097 12.7071 50.6611 11.3847 48.7349 10.4816C46.8087 9.5786 44.7428 9.11279 42.656 9.11099C38.7089 9.11172 34.9059 10.7798 32 13.785ZM50.1094 18.615C54.2774 23.328 54.28 30.69 50.1147 35.379L32 55.758L13.8854 35.379C9.72003 30.69 9.7227 23.328 13.88 18.627C15.9067 16.359 18.5574 15.111 21.344 15.111C24.1307 15.111 26.7707 16.359 28.7814 18.621L30.1147 20.121C30.3621 20.3998 30.656 20.621 30.9795 20.772C31.303 20.9229 31.6498 21.0006 32 21.0006C32.3503 21.0006 32.697 20.9229 33.0205 20.772C33.3441 20.621 33.6379 20.3998 33.8854 20.121L35.2187 18.621C39.2507 14.094 46.0827 14.106 50.1094 18.615Z" fill="black"/>
</g>
</svg>
