<svg width="64" height="72" viewBox="0 0 64 72" fill="none" xmlns="http://www.w3.org/2000/svg">
<g id="bx:heart">
<path id="Vector" d="M31.9998 13.785C29.0942 10.7793 25.291 9.11113 21.3438 9.11099C19.2546 9.11344 17.1864 9.58067 15.2583 10.4858C13.3302 11.3909 11.5802 12.7161 10.1091 14.385C3.83445 21.474 3.83712 32.562 10.1145 39.621L29.6665 61.617C30.1198 62.514 30.9945 63.093 31.9998 63.093C32.4126 63.0885 32.8187 62.9751 33.1855 62.762C33.5523 62.5489 33.8695 62.242 34.1118 61.866L53.8851 39.621C60.1625 32.559 60.1625 21.474 53.8798 14.373C52.4094 12.7071 50.6609 11.3847 48.7346 10.4816C46.8084 9.5786 44.7426 9.11279 42.6558 9.11099C38.7087 9.11172 34.9057 10.7798 31.9998 13.785ZM50.1091 18.615C54.2771 23.328 54.2798 30.69 50.1145 35.379L31.9998 55.758L13.8851 35.379C9.71979 30.69 9.72245 23.328 13.8798 18.627C15.9065 16.359 18.5571 15.111 21.3438 15.111C24.1305 15.111 26.7705 16.359 28.7811 18.621L30.1145 20.121C30.3619 20.3998 30.6558 20.621 30.9793 20.772C31.3028 20.9229 31.6496 21.0006 31.9998 21.0006C32.35 21.0006 32.6968 20.9229 33.0203 20.772C33.3438 20.621 33.6377 20.3998 33.8851 20.121L35.2185 18.621C39.2505 14.094 46.0825 14.106 50.1091 18.615Z" fill="white"/>
</g>
</svg>
