<svg width="68" height="69" viewBox="0 0 68 69" fill="none" xmlns="http://www.w3.org/2000/svg">
<g id="carbon:settings">
<path id="Vector" d="M57.3749 36.1387V32.8397L61.4549 29.2172C62.207 28.5445 62.7006 27.6238 62.8483 26.6176C62.9961 25.6114 62.7886 24.5847 62.2624 23.7187L57.2474 15.0937C56.8748 14.4388 56.339 13.8948 55.6937 13.5164C55.0485 13.1379 54.3165 12.9383 53.5712 12.9375C53.1093 12.9339 52.6499 13.0067 52.2112 13.1531L47.0474 14.9212C46.1559 14.3201 45.2259 13.7798 44.2637 13.3041L43.1799 7.8703C42.9856 6.87758 42.4534 5.98583 41.6764 5.35116C40.8994 4.7165 39.9272 4.37935 38.9299 4.39874H28.9849C27.9877 4.37935 27.0154 4.7165 26.2385 5.35116C25.4615 5.98583 24.9292 6.87758 24.7349 7.8703L23.6512 13.3041C22.682 13.7797 21.745 14.32 20.8462 14.9212L15.7887 13.0669C15.3452 12.9496 14.8859 12.9059 14.4287 12.9375C13.6834 12.9383 12.9514 13.1379 12.3061 13.5164C11.6609 13.8948 11.1251 14.4388 10.7524 15.0937L5.73743 23.7187C5.24142 24.5834 5.05711 25.5961 5.21606 26.5835C5.375 27.5708 5.86731 28.4714 6.60868 29.1309L10.6249 32.8612V36.1603L6.60868 39.7828C5.84637 40.4469 5.34059 41.3636 5.1811 42.3702C5.0216 43.3768 5.2187 44.4081 5.73743 45.2812L10.7524 53.9062C11.1251 54.5612 11.6609 55.1052 12.3061 55.4836C12.9514 55.8621 13.6834 56.0617 14.4287 56.0625C14.8905 56.0661 15.3499 55.9933 15.7887 55.8469L20.9524 54.0787C21.8439 54.6799 22.7739 55.2201 23.7362 55.6959L24.8199 61.1297C25.0142 62.1224 25.5465 63.0142 26.3235 63.6488C27.1004 64.2835 28.0727 64.6206 29.0699 64.6012H39.0999C40.0972 64.6206 41.0694 64.2835 41.8464 63.6488C42.6234 63.0142 43.1556 62.1224 43.3499 61.1297L44.4337 55.6959C45.4028 55.2203 46.3399 54.68 47.2387 54.0787L52.3812 55.8469C52.82 55.9933 53.2793 56.0661 53.7412 56.0625C54.4865 56.0617 55.2185 55.8621 55.8637 55.4836C56.509 55.1052 57.0448 54.5612 57.4174 53.9062L62.2624 45.2812C62.7584 44.4166 62.9427 43.4039 62.7838 42.4165C62.6249 41.4292 62.1325 40.5286 61.3912 39.8691L57.3749 36.1387ZM53.5712 51.75L46.2824 49.2487C44.5762 50.7152 42.6261 51.8616 40.5237 52.6341L39.0149 60.375H28.9849L27.4762 52.7203C25.3903 51.9259 23.4508 50.7815 21.7387 49.335L14.4287 51.75L9.41368 43.125L15.1937 37.95C14.8008 35.718 14.8008 33.433 15.1937 31.2009L9.41368 25.875L14.4287 17.25L21.7174 19.7512C23.4237 18.2848 25.3737 17.1384 27.4762 16.3659L28.9849 8.62499H39.0149L40.5237 16.2797C42.6095 17.0741 44.549 18.2185 46.2612 19.665L53.5712 17.25L58.5862 25.875L52.8062 31.05C53.1991 33.282 53.1991 35.567 52.8062 37.7991L58.5862 43.125L53.5712 51.75Z" fill="white"/>
<path id="Vector_2" d="M34 47.4375C31.4783 47.4375 29.0132 46.6787 26.9165 45.2571C24.8198 43.8356 23.1856 41.815 22.2205 39.451C21.2555 37.087 21.003 34.4857 21.495 31.976C21.987 29.4664 23.2013 27.1612 24.9844 25.3518C26.7675 23.5425 29.0393 22.3103 31.5126 21.8111C33.9859 21.3119 36.5495 21.5681 38.8792 22.5473C41.209 23.5265 43.2003 25.1848 44.6012 27.3123C46.0022 29.4399 46.75 31.9412 46.75 34.5C46.7671 36.2038 46.4489 37.8939 45.8142 39.4714C45.1795 41.0488 44.241 42.4819 43.0536 43.6868C41.8663 44.8916 40.4539 45.8439 38.8993 46.4879C37.3447 47.132 35.6791 47.4548 34 47.4375ZM34 25.875C32.8766 25.8485 31.7596 26.0534 30.7165 26.4774C29.6734 26.9015 28.7259 27.5358 27.9313 28.3421C27.1368 29.1483 26.5116 30.1098 26.0937 31.1682C25.6758 32.2266 25.4738 33.3601 25.5 34.5C25.4738 35.6399 25.6758 36.7734 26.0937 37.8318C26.5116 38.8902 27.1368 39.8517 27.9313 40.6579C28.7259 41.4642 29.6734 42.0985 30.7165 42.5226C31.7596 42.9466 32.8766 43.1516 34 43.125C35.1234 43.1516 36.2404 42.9466 37.2835 42.5226C38.3266 42.0985 39.2741 41.4642 40.0687 40.6579C40.8633 39.8517 41.4884 38.8902 41.9063 37.8318C42.3242 36.7734 42.5262 35.6399 42.5 34.5C42.5262 33.3601 42.3242 32.2266 41.9063 31.1682C41.4884 30.1098 40.8633 29.1483 40.0687 28.3421C39.2741 27.5358 38.3266 26.9015 37.2835 26.4774C36.2404 26.0534 35.1234 25.8485 34 25.875Z" fill="white"/>
</g>
</svg>
