<svg width="48" height="48" viewBox="0 0 48 48" fill="none" xmlns="http://www.w3.org/2000/svg">
<path id="Vector" d="M47.1826 47L36.1573 35.9013M36.1573 35.9013C38.0432 34.0029 39.5392 31.7491 40.5599 29.2686C41.5805 26.7881 42.1059 24.1296 42.1059 21.4447C42.1059 18.7599 41.5805 16.1013 40.5599 13.6209C39.5392 11.1404 38.0432 8.88659 36.1573 6.98812C34.2714 5.08966 32.0325 3.58371 29.5685 2.55626C27.1044 1.52882 24.4634 1 21.7963 1C19.1293 1 16.4883 1.52882 14.0242 2.55626C11.5602 3.58371 9.32125 5.08966 7.43534 6.98812C3.62656 10.8223 1.48682 16.0225 1.48682 21.4447C1.48682 26.867 3.62656 32.0672 7.43534 35.9013C11.2441 39.7355 16.4099 41.8895 21.7963 41.8895C27.1828 41.8895 32.3486 39.7355 36.1573 35.9013Z" stroke="white" stroke-width="1.5" stroke-linecap="round" stroke-linejoin="round"/>
</svg>
