<svg width="54" height="54" viewBox="0 0 54 54" fill="none" xmlns="http://www.w3.org/2000/svg">
<path id="Vector" d="M26.595 4.674C23.6894 1.66831 19.8862 0.000139661 15.939 0C13.8498 0.00244711 11.7816 0.469679 9.8535 1.37481C7.9254 2.27993 6.17544 3.60508 4.70433 5.274C-1.57033 12.363 -1.56767 23.451 4.70967 30.51L24.2617 52.506C24.715 53.403 25.5897 53.982 26.595 53.982C27.0078 53.9775 27.4139 53.8641 27.7807 53.651C28.1475 53.4379 28.4648 53.1311 28.707 52.755L48.4803 30.51C54.7577 23.448 54.7577 12.363 48.475 5.262C47.0046 3.59615 45.2561 2.27369 43.3299 1.37065C41.4037 0.467609 39.3378 0.00179882 37.251 0C33.3039 0.000725877 29.5009 1.66882 26.595 4.674ZM44.7043 9.504C48.8723 14.217 48.875 21.579 44.7097 26.268L26.595 46.647L8.48033 26.268C4.315 21.579 4.31767 14.217 8.475 9.516C10.5017 7.248 13.1523 6 15.939 6C18.7257 6 21.3657 7.248 23.3763 9.51L24.7097 11.01C24.9571 11.2888 25.251 11.5101 25.5745 11.661C25.898 11.8119 26.2448 11.8896 26.595 11.8896C26.9452 11.8896 27.292 11.8119 27.6155 11.661C27.939 11.5101 28.2329 11.2888 28.4803 11.01L29.8137 9.51C33.8457 4.983 40.6777 4.995 44.7043 9.504Z" fill="white"/>
</svg>
